<svg width="80" height="90" viewBox="0 0 80 90" fill="none" xmlns="http://www.w3.org/2000/svg">
<rect width="80" height="90" rx="8" fill="white"/>
<path d="M33.5 39C33.1022 39 32.7206 39.158 32.4393 39.4393C32.158 39.7206 32 40.1022 32 40.5V49.5C32 49.8978 32.158 50.2794 32.4393 50.5607C32.7206 50.842 33.1022 51 33.5 51H46.5C46.8978 51 47.2794 50.842 47.5607 50.5607C47.842 50.2794 48 49.8978 48 49.5V40.5C48 40.1022 47.842 39.7206 47.5607 39.4393C47.2794 39.158 46.8978 39 46.5 39H33.5ZM46.5 40C46.6326 40 46.7598 40.0527 46.8536 40.1464C46.9473 40.2402 47 40.3674 47 40.5V46.5L43.225 44.553C43.1312 44.506 43.025 44.4897 42.9215 44.5064C42.8179 44.5231 42.7223 44.5719 42.648 44.646L38.938 48.356L36.278 46.584C36.182 46.5201 36.0668 46.4913 35.9519 46.5026C35.8371 46.5139 35.7297 46.5646 35.648 46.646L33.002 49V49.54C33.0008 49.5267 33.0001 49.5134 33 49.5V40.5C33 40.3674 33.0527 40.2402 33.1464 40.1464C33.2402 40.0527 33.3674 40 33.5 40H46.5Z" fill="#839EBA"/>
</svg>
