<svg width="6" height="26" viewBox="0 0 6 26" fill="none" xmlns="http://www.w3.org/2000/svg">
<path d="M0.5 2.75C0.5 2.4 0.5 2.2275 0.52 2.0825C0.583636 1.62427 0.795072 1.19933 1.1222 0.872199C1.44933 0.545072 1.87427 0.333636 2.3325 0.27C2.475 0.25 2.65 0.25 3 0.25C3.35 0.25 3.5225 0.25 3.6675 0.27C4.12573 0.333636 4.55067 0.545072 4.8778 0.872199C5.20493 1.19933 5.41636 1.62427 5.48 2.0825C5.5 2.225 5.5 2.4 5.5 2.75C5.5 3.1 5.5 3.2725 5.48 3.4175C5.41636 3.87573 5.20493 4.30067 4.8778 4.6278C4.55067 4.95493 4.12573 5.16636 3.6675 5.23C3.525 5.25 3.35 5.25 3 5.25C2.65 5.25 2.4775 5.25 2.3325 5.23C1.87427 5.16636 1.44933 4.95493 1.1222 4.6278C0.795072 4.30067 0.583636 3.87573 0.52 3.4175C0.5 3.275 0.5 3.1 0.5 2.75ZM0.5 12.75C0.5 12.4 0.5 12.2275 0.52 12.0825C0.583636 11.6243 0.795072 11.1993 1.1222 10.8722C1.44933 10.5451 1.87427 10.3336 2.3325 10.27C2.475 10.25 2.65 10.25 3 10.25C3.35 10.25 3.5225 10.25 3.6675 10.27C4.12573 10.3336 4.55067 10.5451 4.8778 10.8722C5.20493 11.1993 5.41636 11.6243 5.48 12.0825C5.5 12.225 5.5 12.4 5.5 12.75C5.5 13.1 5.5 13.2725 5.48 13.4175C5.41636 13.8757 5.20493 14.3007 4.8778 14.6278C4.55067 14.9549 4.12573 15.1664 3.6675 15.23C3.525 15.25 3.35 15.25 3 15.25C2.65 15.25 2.4775 15.25 2.3325 15.23C1.87427 15.1664 1.44933 14.9549 1.1222 14.6278C0.795072 14.3007 0.583636 13.8757 0.52 13.4175C0.5 13.275 0.5 13.1 0.5 12.75ZM0.5 22.75C0.5 22.4025 0.5 22.2275 0.52 22.0825C0.584008 21.6251 0.795302 21.201 1.12189 20.8744C1.44848 20.5478 1.87259 20.3365 2.33 20.2725C2.4775 20.2525 2.65 20.2525 2.9975 20.2525C3.345 20.2525 3.5225 20.2525 3.665 20.2725C4.12241 20.3365 4.54652 20.5478 4.87311 20.8744C5.1997 21.201 5.41099 21.6251 5.475 22.0825C5.495 22.2275 5.495 22.4025 5.495 22.75C5.495 23.0975 5.495 23.2725 5.475 23.4175C5.41099 23.8749 5.1997 24.299 4.87311 24.6256C4.54652 24.9522 4.12241 25.1635 3.665 25.2275C3.52 25.2475 3.345 25.2475 2.9975 25.2475C2.65 25.2475 2.475 25.2475 2.33 25.2275C1.87259 25.1635 1.44848 24.9522 1.12189 24.6256C0.795302 24.299 0.584008 23.8749 0.52 23.4175C0.5 23.2725 0.5 23.0975 0.5 22.75Z" fill="#A4A7AE"/>
</svg>
